<?xml version="1.0" ?><svg viewBox="0 0 60 60" xmlns="http://www.w3.org/2000/svg"><rect fill="#fff" height="60" rx="10" width="60"/><path d="M40,20l-1.088-3.265A4,4,0,0,0,35.117,14H24.883a4,4,0,0,0-3.795,2.735L20,20H12a4,4,0,0,0-4,4V44a4,4,0,0,0,4,4H48a4,4,0,0,0,4-4V24a4,4,0,0,0-4-4Z" fill="#f1f3f4"/><path d="M52,29.5H8a1.5,1.5,0,0,1,0-3H52a1.5,1.5,0,0,1,0,3Z" fill="#8d9cf4"/><circle cx="30" cy="33" fill="#c1f7fd" r="9"/><path d="M30,43.5A10.5,10.5,0,1,1,40.5,33,10.512,10.512,0,0,1,30,43.5Zm0-18A7.5,7.5,0,1,0,37.5,33,7.508,7.508,0,0,0,30,25.5Z" fill="#8d9cf4"/><path d="M48,49.5H12A5.506,5.506,0,0,1,6.5,44V24A5.506,5.506,0,0,1,12,18.5h6.919l.747-2.239A5.491,5.491,0,0,1,24.883,12.5H35.117a5.494,5.494,0,0,1,5.218,3.76l.746,2.24H48A5.506,5.506,0,0,1,53.5,24V44A5.506,5.506,0,0,1,48,49.5Zm-36-28A2.5,2.5,0,0,0,9.5,24V44A2.5,2.5,0,0,0,12,46.5H48A2.5,2.5,0,0,0,50.5,44V24A2.5,2.5,0,0,0,48,21.5H40a1.5,1.5,0,0,1-1.423-1.026l-1.088-3.265A2.5,2.5,0,0,0,35.117,15.5H24.883a2.5,2.5,0,0,0-2.372,1.709l-1.088,3.265A1.5,1.5,0,0,1,20,21.5Z" fill="#7c6c8c"/><path d="M8,25.5A1.5,1.5,0,0,1,6.5,24,5.506,5.506,0,0,1,12,18.5h6.919l.747-2.239A5.491,5.491,0,0,1,24.883,12.5H35.117a1.5,1.5,0,0,1,0,3H24.883a2.5,2.5,0,0,0-2.372,1.709l-1.088,3.265A1.5,1.5,0,0,1,20,21.5H12A2.5,2.5,0,0,0,9.5,24,1.5,1.5,0,0,1,8,25.5Z" fill="#aaadbf"/></svg>